<svg width="50" height="50" viewBox="0 0 50 50" fill="none" xmlns="http://www.w3.org/2000/svg">
<path d="M25.0016 1.74072C14.9687 1.74072 6.64062 12.0503 6.64062 24.9985C6.64062 30.4404 8.11328 35.4165 10.5635 39.3573C14.6683 41.1144 19.9016 42.0521 25.1475 42.0569C30.2088 42.0614 35.2637 41.1989 39.3115 39.5581C41.8369 35.586 43.3594 30.5333 43.3594 24.9983C43.3594 12.0501 35.0342 1.74092 25.0018 1.74072H25.0016ZM25.1721 3.56689C33.0358 3.56689 39.3937 9.92158 39.3937 17.7856C39.3937 25.6495 33.0358 32.0073 25.1721 32.0073C17.3078 32.0073 10.9533 25.6495 10.9533 17.7856C10.9533 9.92139 17.3078 3.56689 25.1721 3.56689ZM22.468 7.4751C22.2154 8.03897 21.9709 8.57783 21.7336 9.11992C21.6806 9.24131 21.6171 9.27012 21.4775 9.27969C20.9467 9.3165 20.4155 9.37022 19.8906 9.45547C19.7178 9.48379 19.6279 9.47598 19.5271 9.3291C19.2014 8.85391 18.8607 8.38906 18.5161 7.90674L16.3348 9.50205C16.7037 10.02 17.0475 10.514 17.4053 10.9977C17.5006 11.1264 17.4879 11.2105 17.4152 11.346C17.2446 11.6642 17.0961 11.9951 16.9563 12.3282C16.8747 12.522 16.8855 12.8065 16.7486 12.9109C16.5963 13.0271 16.3233 12.9865 16.1026 13.012C15.6391 13.0655 15.1749 13.1175 14.6922 13.1722L14.9585 15.8603C15.6359 15.7841 16.2739 15.7069 16.9133 15.6459C17.027 15.6352 17.1984 15.6514 17.2554 15.724C17.5739 16.1303 17.8655 16.5575 18.1931 17.015L17.2676 19.0912L19.7146 20.1865C20.0131 19.5213 20.304 18.8853 20.5827 18.2438C20.647 18.0955 20.7181 18.045 20.8896 18.0422C21.2834 18.0357 21.6816 18.0146 22.0677 17.9426C22.2916 17.901 22.4056 17.9408 22.5322 18.1227C22.9227 18.6832 23.333 19.2298 23.7418 19.7902L25.3125 18.6455L25.8532 19.5818L23.9015 21.5359L21.5159 20.1654L20.243 22.4813C21.0522 22.9524 21.8332 23.4071 22.5444 23.8214C22.3343 24.7086 22.1392 25.5481 21.9302 26.3843C21.9149 26.4444 21.7983 26.5181 21.7278 26.5193C21.0846 26.5296 20.4407 26.5255 19.7972 26.5255H19.1541V29.1069C19.2196 29.1379 19.2854 29.1684 19.3514 29.1982H21.8989C21.9722 29.5082 22.0432 29.8043 22.112 30.097C22.9979 30.2798 23.9001 30.3717 24.8047 30.3712C26.358 30.3712 27.8455 30.1048 29.2223 29.617C28.4152 28.3113 28.6104 26.6395 29.5268 25.5962C30.824 24.1187 33.0971 24.0166 34.4871 25.3978C34.5986 25.5088 34.7033 25.6266 34.8006 25.7503C36.611 23.587 37.6953 20.824 37.6953 17.8138C37.6951 17.2197 37.6522 16.6263 37.567 16.0384C37.5439 16.0267 37.5253 16.0169 37.5 16.0042C37.4871 15.9976 37.4697 15.9996 37.4352 15.9954C36.9872 16.7728 36.5357 17.5565 36.1109 18.2942L33.4223 17.5554V14.8981H30.7543V17.5583C29.8731 17.7966 29.0262 18.0258 28.1522 18.262C27.7282 17.5247 27.2833 16.7511 26.8368 15.9743L25.0563 16.9738C24.9284 16.7956 24.8195 16.6309 24.6965 16.4771C24.6159 16.3765 24.6332 16.3086 24.6938 16.1978C24.9064 15.8091 25.1192 15.4173 25.2855 15.0078C25.3642 14.8137 25.4509 14.7508 25.6498 14.7334C26.28 14.679 26.9081 14.6006 27.5654 14.5281C27.4756 13.618 27.3877 12.7315 27.2998 11.8404C26.6362 11.9041 26.0205 11.9596 25.4057 12.025C25.2602 12.0403 25.2006 11.9871 25.1236 11.8629C24.8515 11.4239 24.5684 10.9895 24.2555 10.5793C24.1422 10.4311 24.1162 10.3391 24.1939 10.1742C24.4417 9.64815 24.6725 9.11426 24.9159 8.56895C24.0907 8.20039 23.2887 7.8419 22.4679 7.4752L22.468 7.4751ZM21.154 11.6592C22.3586 11.6691 23.3215 12.6429 23.3114 13.8405C23.3012 15.0547 22.3219 16.0124 21.1049 15.998C19.8914 15.9839 18.9519 15.0098 18.9654 13.7793C18.9785 12.599 19.959 11.649 21.1539 11.6592H21.154ZM16.7416 32.6191C18.5302 32.6191 19.9707 34.0645 19.9707 35.8818C19.9707 37.699 18.5303 39.1472 16.7418 39.1472C14.9532 39.1472 13.5156 37.6989 13.5156 35.8818C13.5156 34.0645 14.9531 32.6191 16.7416 32.6191ZM32.8875 32.6906C33.7422 32.6906 34.5619 33.0302 35.1663 33.6345C35.7706 34.2389 36.1102 35.0586 36.1102 35.9133C36.1102 36.768 35.7706 37.5877 35.1663 38.192C34.5619 38.7964 33.7422 39.1359 32.8875 39.1359C32.0328 39.1359 31.2131 38.7964 30.6087 38.192C30.0044 37.5877 29.6648 36.768 29.6648 35.9133C29.6648 35.0586 30.0044 34.2389 30.6087 33.6345C31.2131 33.0302 32.0328 32.6906 32.8875 32.6906ZM12.5387 42.0658V42.0664L12.5395 42.0666L12.5387 42.0658ZM12.5395 42.0666C13.6609 43.3794 14.9115 44.5152 16.2609 45.4441L15.5699 42.8755C14.5482 42.6513 13.537 42.3814 12.5395 42.0666ZM37.3334 42.215C36.4531 42.4791 35.5627 42.7086 34.6645 42.9031L34.0375 45.2374C35.223 44.3856 36.3285 43.3702 37.3334 42.2156V42.2152V42.215ZM17.5605 43.2618L18.4946 46.7468C19.5991 47.2792 20.7524 47.6794 21.9429 47.9339L21.4499 43.7341C20.1468 43.6365 18.849 43.4788 17.5604 43.2616L17.5605 43.2618ZM32.6771 43.2864C31.6776 43.4502 30.6728 43.5792 29.6644 43.6731L29.1954 47.648C30.0851 47.3823 30.9493 47.0335 31.7854 46.6099L32.6773 43.2868V43.2866L32.6771 43.2864ZM27.8167 43.8037L27.8162 43.8066H27.8168L27.8167 43.8037ZM27.8162 43.8066C26.9295 43.8557 26.0383 43.8802 25.1479 43.8802C24.5288 43.8799 23.9098 43.8677 23.2912 43.8434L23.8085 48.2105C24.203 48.2474 24.6007 48.2597 25.0015 48.2597C25.783 48.2597 26.5532 48.1985 27.3112 48.0736L27.8161 43.8068L27.8162 43.8066Z" fill="black"/>
</svg>
