<svg width="86" height="86" viewBox="0 0 86 86" fill="none" xmlns="http://www.w3.org/2000/svg">
<path d="M59.3333 84.3422V82.2589C59.3333 77.6547 63.2167 73.9255 67.3417 71.888C71.3542 69.9047 74.725 66.638 75.1542 62.8047L76 55.1755L84.3333 51.0089L73.9167 35.3839C73.9181 29.6946 72.5075 24.0939 69.8112 19.0841C67.115 14.0743 63.2174 9.81203 58.4682 6.67958C53.7189 3.54712 48.2664 1.64242 42.5997 1.1363C36.933 0.63018 31.2292 1.53846 26 3.77969M19.75 63.4922V84.3422M19.75 63.4922C14.0238 59.4571 9.6634 53.7726 7.25 47.1964M19.75 63.4922C22.875 65.7005 26.3917 67.3964 30.1667 68.4672" stroke="black" stroke-width="1.5" stroke-linecap="round" stroke-linejoin="round"/>
<path d="M4.125 6.21729L17.6667 15.5923H34.3333M4.125 29.134H34.3333M7.25 6.21729C7.25 6.62767 7.16917 7.03403 7.01212 7.41317C6.85508 7.79231 6.62489 8.13681 6.33471 8.42699C6.04453 8.71718 5.70003 8.94736 5.32089 9.10441C4.94174 9.26145 4.53538 9.34228 4.125 9.34228C3.71462 9.34228 3.30826 9.26145 2.92911 9.10441C2.54997 8.94736 2.20547 8.71718 1.91529 8.42699C1.62511 8.13681 1.39492 7.79231 1.23788 7.41317C1.08083 7.03403 1 6.62767 1 6.21729C1 5.38848 1.32924 4.59363 1.91529 4.00758C2.50134 3.42152 3.2962 3.09229 4.125 3.09229C4.9538 3.09229 5.74866 3.42152 6.33471 4.00758C6.92076 4.59363 7.25 5.38848 7.25 6.21729ZM7.25 29.134C7.25 29.5443 7.16917 29.9507 7.01212 30.3298C6.85508 30.709 6.62489 31.0535 6.33471 31.3437C6.04453 31.6338 5.70003 31.864 5.32089 32.0211C4.94174 32.1781 4.53538 32.259 4.125 32.259C3.71462 32.259 3.30826 32.1781 2.92911 32.0211C2.54997 31.864 2.20547 31.6338 1.91529 31.3437C1.62511 31.0535 1.39492 30.709 1.23788 30.3298C1.08083 29.9507 1 29.5443 1 29.134C1 28.3051 1.32924 27.5103 1.91529 26.9242C2.50134 26.3382 3.2962 26.009 4.125 26.009C4.9538 26.009 5.74866 26.3382 6.33471 26.9242C6.92076 27.5103 7.25 28.3051 7.25 29.134Z" stroke="black" stroke-width="1.5" stroke-linecap="round" stroke-linejoin="round"/>
</svg>
