<svg width="50" height="50" viewBox="0 0 50 50" fill="none" xmlns="http://www.w3.org/2000/svg">
<g clip-path="url(#clip0_43_545)">
<path fill-rule="evenodd" clip-rule="evenodd" d="M34.7821 3.03559C35.4357 0.053452 39.6893 0.0355948 40.3679 3.01774L40.4036 3.16059L40.4643 3.43559C41.25 6.77131 43.9464 9.32131 47.3286 9.90702C50.4429 10.4499 50.4429 14.9213 47.3286 15.4642C45.6679 15.7551 44.13 16.5293 42.9071 17.6899C41.6842 18.8505 40.8308 20.346 40.4536 21.9892L40.3679 22.357C39.6893 25.3356 35.4393 25.3213 34.7821 22.332L34.7107 22.0177C34.3498 20.3684 33.5059 18.8639 32.2865 17.6961C31.0672 16.5283 29.5277 15.75 27.8643 15.4606C24.7571 14.9177 24.7571 10.4535 27.8643 9.91417C29.5233 9.62609 31.0593 8.85179 32.2776 7.68947C33.4958 6.52715 34.3414 5.0292 34.7071 3.38559L34.7571 3.15702L34.7821 3.03559ZM30.9214 22.8499C30.7291 21.957 30.2756 21.1414 29.6187 20.5068C28.9618 19.8721 28.1311 19.4471 27.2321 19.2856V45.0534C28.4121 46.5799 29.9826 47.7591 31.7775 48.4665C33.5725 49.1739 35.5252 49.3831 37.4293 49.0721C39.3334 48.7611 41.1181 47.9414 42.5947 46.6997C44.0713 45.4579 45.1849 43.8403 45.8179 42.0177C44.8667 41.9248 43.9322 41.705 43.0393 41.3642C40.9143 40.5642 38.6036 38.9892 36.7071 36.2356C36.3714 35.7478 36.2431 35.1466 36.3506 34.5642C36.4581 33.9818 36.7925 33.466 37.2804 33.1302C37.7682 32.7944 38.3694 32.6662 38.9518 32.7737C39.5341 32.8812 40.0499 33.2156 40.3857 33.7034C41.75 35.6856 43.3143 36.6999 44.6107 37.1856C45.2679 37.4356 45.8536 37.5427 46.3107 37.5784L46.3929 37.5856C48.6071 35.1784 50 30.5213 50 26.632C50 24.0106 49.3679 21.4249 48.275 19.232L47.9929 19.2856C46.1357 19.607 44.6571 21.0142 44.2393 22.8499L44.1536 23.2142C42.5536 30.2392 32.5286 30.1963 30.9893 23.157L30.9214 22.8499ZM22.7679 16.482C22.0367 15.3501 21.6478 14.0313 21.6478 12.6838C21.6478 11.3363 22.0367 10.0175 22.7679 8.88559V7.02845C21.5277 5.57077 19.8701 4.52876 18.0189 4.04314C16.1677 3.55752 14.212 3.65169 12.416 4.31292C10.62 4.97415 9.0702 6.1706 7.97584 7.74069C6.88147 9.31078 6.29528 11.1789 6.29643 13.0927V13.0999C6.43571 14.4927 7.00357 15.5285 7.66071 16.2785C8.47857 17.2106 9.33929 17.5927 9.54286 17.6356C9.82895 17.7006 10.0994 17.8212 10.3389 17.9907C10.5784 18.1602 10.7821 18.3752 10.9385 18.6234C11.0948 18.8717 11.2008 19.1483 11.2502 19.4375C11.2997 19.7266 11.2917 20.0227 11.2268 20.3088C11.1618 20.5949 11.0412 20.8654 10.8717 21.1049C10.7022 21.3443 10.4872 21.548 10.2389 21.7044C9.9907 21.8608 9.7141 21.9667 9.42493 22.0162C9.13575 22.0657 8.83967 22.0577 8.55357 21.9927C7.26786 21.6963 5.625 20.7249 4.30357 19.2249C3.76776 18.6139 3.30842 17.9399 2.93571 17.2177C1.11429 19.7356 0 23.1535 0 26.632C0 29.257 0.635714 32.232 1.725 34.6249C2.01071 34.3011 2.32024 34.0106 2.65357 33.7534C2.88165 33.5564 3.14726 33.4076 3.43441 33.316C3.72155 33.2244 4.02426 33.1919 4.3243 33.2205C4.62434 33.2491 4.91549 33.3381 5.18019 33.4822C5.44489 33.6263 5.67767 33.8226 5.86447 34.0591C6.05128 34.2956 6.18825 34.5675 6.26712 34.8584C6.346 35.1493 6.36515 35.4532 6.32342 35.7517C6.28168 36.0502 6.17993 36.3371 6.0243 36.5952C5.86866 36.8533 5.66237 37.0772 5.41786 37.2534C4.78214 37.757 4.11786 38.8392 3.71071 40.0927C4.02082 42.1679 4.934 44.1061 6.33672 45.6665C7.73944 47.2269 9.56984 48.3406 11.6004 48.8692C13.6309 49.3977 15.772 49.3178 17.7575 48.6394C19.743 47.961 21.4853 46.714 22.7679 45.0534V31.9463C21.3302 33.1095 19.5884 33.8347 17.75 34.0356C17.4585 34.0682 17.1635 34.0431 16.8817 33.9616C16.5999 33.8802 16.3369 33.7441 16.1078 33.561C15.8786 33.3779 15.6878 33.1515 15.5461 32.8947C15.4044 32.6379 15.3147 32.3556 15.2821 32.0642C15.2495 31.7727 15.2747 31.4776 15.3561 31.1958C15.4375 30.9141 15.5737 30.6511 15.7567 30.4219C15.9398 30.1928 16.1662 30.0019 16.423 29.8603C16.6799 29.7186 16.9621 29.6289 17.2536 29.5963C19.0714 29.3963 20.3929 28.3499 21.3357 26.9749C22.2929 25.582 22.7071 24.0535 22.7679 23.3213V16.482Z" fill="black"/>
</g>
<defs>
<clipPath id="clip0_43_545">
<rect width="50" height="50" fill="white"/>
</clipPath>
</defs>
</svg>
