<svg width="47" height="47" viewBox="0 0 47 47" fill="none" xmlns="http://www.w3.org/2000/svg">
<path d="M35.3733 8.03906C38.2884 10.3611 40.5415 13.4091 41.9063 16.877C44.3151 23.1907 42.8973 30.3934 38.7946 35.6574C37.0243 37.817 34.8328 39.5934 32.3536 40.8784C28.4481 42.9532 23.9377 43.5895 19.6107 42.6761C15.5781 41.7958 11.9173 39.688 9.1315 36.6423C6.34572 33.5967 4.57182 29.7629 4.05372 25.668C4.01801 25.3736 3.99905 25.0774 3.99693 24.7809L3.96168 24.5635C3.91465 23.9614 3.90745 23.357 3.94014 22.754L3.96168 22.5229C3.98543 22.4368 3.99729 22.3478 3.99693 22.2585L4.04393 21.5085C4.20368 19.7444 4.62271 18.0136 5.28747 16.3718C6.15343 14.1229 7.46652 12.0729 9.14734 10.346C11.135 8.19988 13.5698 6.51653 16.2796 5.4149C19.403 4.08876 22.827 3.63267 26.1886 4.09502C29.5502 4.55737 32.724 5.91895 35.3733 8.03906ZM4.29655 20.8642C3.85789 24.0915 4.18101 26.9487 5.27572 30.0135C6.29418 32.7832 7.92304 35.2881 10.0415 37.3425C12.16 39.3969 14.7137 40.9481 17.5133 41.881C19.1329 42.4822 20.8425 42.8054 22.5717 42.8367C26.0709 42.9917 29.5466 42.1958 32.6297 40.5337C35.0029 39.2523 37.092 37.5036 38.7711 35.3931C41.9984 31.1298 43.5083 25.854 42.6897 20.496C41.8711 15.1948 38.5987 10.4694 34.2316 7.38302C32.4031 6.11084 30.3567 5.18489 28.1941 4.65115C24.8781 3.83515 21.4049 3.91409 18.1295 4.87987C14.854 5.84566 11.8936 7.66368 9.55076 10.1482C8.36401 11.4035 7.2458 12.7763 6.43897 14.2959C5.81008 15.4725 5.29719 16.7075 4.90755 17.9835C4.65166 18.776 4.448 19.7362 4.29655 20.8642ZM16.1758 40.9586C12.6612 39.4669 9.66893 36.9647 7.57872 33.7696C5.41881 30.491 4.33955 26.6184 4.49239 22.6952C4.62947 19.7577 5.39126 17.0611 6.77384 14.4918C7.75543 12.7457 8.99907 11.1606 10.4614 9.79177C12.123 8.20297 14.0592 6.92899 16.1758 6.03177C18.8607 4.88027 21.8687 4.18898 24.7944 4.45335C28.7698 4.79998 32.4809 6.23935 35.4869 8.80869C37.6366 10.6317 39.3963 12.8697 40.6608 15.3887C44.0037 22.0137 42.6897 29.9783 38.0915 35.6339C36.398 37.5987 34.3448 39.2219 32.0422 40.4162C29.1596 41.8921 25.9446 42.5984 22.7088 42.4666L22.3641 42.4313C20.2271 42.3327 18.1277 41.8324 16.1758 40.9567M38.6222 20.9778C37.5628 13.775 32.5847 8.97123 25.4407 7.86477C23.2564 7.5807 21.0359 7.80522 18.9527 8.52081C15.7091 9.46119 12.8666 11.4461 10.8667 14.1674C8.86667 16.8887 7.82103 20.1942 7.89205 23.5706C7.94584 26.0134 8.59397 28.4063 9.78039 30.5423C10.9668 32.6784 12.6558 34.4932 14.7012 35.8298C17.5118 37.571 20.764 38.467 24.0698 38.4109C25.1923 38.4144 26.3081 38.2392 27.3755 37.8919C29.2555 37.2926 31.0063 36.5093 32.5612 35.2873C34.7641 33.6669 36.4896 31.4828 37.5562 28.9646C38.6228 26.4465 38.991 23.6875 38.6222 20.9778ZM10.4496 30.3699C12.2924 33.5503 15.5315 36.1314 19.2523 37.0988C20.6271 37.4787 22.0351 37.7098 23.4588 37.7901C23.4715 37.7781 23.4797 37.7622 23.4823 37.745V35.0347L23.4921 28.5467C23.4921 27.7986 24.4145 27.1074 25.049 26.6236L25.2781 26.4513C25.6248 26.185 25.7403 26.0812 25.8088 25.7816C25.8088 25.7816 25.7853 24.8611 25.7971 24.1229V20.6664C25.7383 20.3785 25.2899 20.1474 24.9217 19.9516C24.8032 19.8961 24.6875 19.8346 24.5751 19.7675C24.2657 19.5599 23.4921 18.9039 23.4921 18.4417V8.8224C23.4926 8.74378 23.4773 8.66586 23.4471 8.59327L23.4236 8.52277C23.4105 8.44574 23.3648 8.40788 23.2865 8.40919C21.6611 8.44248 20.0592 8.90465 18.5493 9.4099C15.8429 10.3323 13.7573 11.8304 11.8675 13.963C10.3223 15.6903 9.39997 18.1108 8.88297 20.3217C8.31701 22.7187 8.4913 25.3468 9.28639 27.7321C9.60755 28.7347 9.99922 29.6101 10.4379 30.3817L10.4496 30.3699Z" fill="white"/>
</svg>
