<svg width="50" height="50" viewBox="0 0 50 50" fill="none" xmlns="http://www.w3.org/2000/svg">
<path d="M13.3937 5.02705C13.6564 4.71356 13.7857 4.30959 13.7538 3.90186C13.722 3.49412 13.5315 3.11513 13.2234 2.84624C12.9152 2.57735 12.5139 2.44001 12.1056 2.46368C11.6973 2.48736 11.3146 2.67017 11.0396 2.97288L8.3479 6.05621C6.82162 7.80531 5.95882 10.0353 5.9104 12.3562L5.79165 18.0208C5.78741 18.226 5.82363 18.43 5.89824 18.6212C5.97284 18.8124 6.08437 18.987 6.22647 19.1351C6.36856 19.2832 6.53843 19.4019 6.72638 19.4843C6.91433 19.5667 7.11667 19.6113 7.32186 19.6156C7.52705 19.6198 7.73107 19.5836 7.92226 19.509C8.11346 19.4344 8.28808 19.3229 8.43617 19.1808C8.58426 19.0387 8.70292 18.8688 8.78536 18.6809C8.8678 18.4929 8.91241 18.2906 8.91666 18.0854L9.03332 12.4229C9.06674 10.8348 9.65744 9.30905 10.7021 8.11246L13.3937 5.02705Z" fill="black"/>
<path fill-rule="evenodd" clip-rule="evenodd" d="M12.9937 16.0416C13.1337 13.8127 14.1177 11.721 15.7457 10.1921C17.3736 8.66328 19.523 7.81231 21.7562 7.81246H22.9167V6.24996C22.9167 5.69742 23.1362 5.16752 23.5269 4.77682C23.9176 4.38612 24.4475 4.16663 25 4.16663C25.5525 4.16663 26.0824 4.38612 26.4731 4.77682C26.8638 5.16752 27.0833 5.69742 27.0833 6.24996V7.81246H28.2437C30.477 7.81231 32.6264 8.66328 34.2543 10.1921C35.8822 11.721 36.8663 13.8127 37.0062 16.0416L37.4667 23.4041C37.6446 26.2108 38.587 28.9154 40.1917 31.225C40.5237 31.7022 40.7265 32.2572 40.7805 32.836C40.8345 33.4149 40.7378 33.9978 40.4998 34.5282C40.2617 35.0586 39.8905 35.5184 39.4221 35.8628C38.9538 36.2072 38.4043 36.4246 37.8271 36.4937L30.7292 37.3437V39.5833C30.7292 41.1028 30.1256 42.56 29.0511 43.6344C27.9767 44.7089 26.5195 45.3125 25 45.3125C23.4805 45.3125 22.0233 44.7089 20.9489 43.6344C19.8744 42.56 19.2708 41.1028 19.2708 39.5833V37.3437L12.1729 36.4916C11.596 36.4223 11.0469 36.2049 10.5788 35.8606C10.1108 35.5163 9.73976 35.0568 9.50177 34.5267C9.26379 33.9967 9.16695 33.4141 9.22067 32.8355C9.27438 32.257 9.47683 31.7021 9.80833 31.225C11.413 28.9154 12.3553 26.2108 12.5333 23.4041L12.9937 16.0416ZM21.7562 10.9375C20.3179 10.9373 18.9335 11.4853 17.885 12.47C16.8364 13.4546 16.2026 14.8019 16.1125 16.2375L15.6542 23.6C15.44 26.9765 14.306 30.2301 12.375 33.0083C12.351 33.0428 12.3363 33.0829 12.3324 33.1248C12.3284 33.1667 12.3354 33.2088 12.3526 33.2472C12.3698 33.2856 12.3966 33.3189 12.4305 33.3438C12.4644 33.3687 12.5041 33.3845 12.5458 33.3895L20.3312 34.325C23.4333 34.6958 26.5667 34.6958 29.6687 34.325L37.4542 33.3895C37.4959 33.3845 37.5356 33.3687 37.5695 33.3438C37.6034 33.3189 37.6302 33.2856 37.6474 33.2472C37.6646 33.2088 37.6716 33.1667 37.6676 33.1248C37.6637 33.0829 37.649 33.0428 37.625 33.0083C35.6948 30.2299 34.5615 26.9763 34.3479 23.6L33.8875 16.2375C33.7974 14.8019 33.1636 13.4546 32.115 12.47C31.0665 11.4853 29.6821 10.9373 28.2437 10.9375H21.7562ZM25 42.1875C23.5625 42.1875 22.3958 41.0208 22.3958 39.5833V38.0208H27.6042V39.5833C27.6042 41.0208 26.4375 42.1875 25 42.1875Z" fill="black"/>
<path d="M36.7562 2.82297C36.4441 3.09541 36.253 3.48066 36.2249 3.89399C36.1967 4.30733 36.3339 4.71491 36.6062 5.02713L39.2979 8.11047C40.3422 9.30789 40.9322 10.8344 40.9646 12.423L41.0833 18.0834C41.0919 18.4978 41.2647 18.8918 41.5638 19.1788C41.8629 19.4657 42.2637 19.6222 42.6781 19.6136C43.0925 19.605 43.4865 19.4322 43.7735 19.1331C44.0605 18.834 44.2169 18.4332 44.2083 18.0188L44.0896 12.3563C44.0412 10.0354 43.1784 7.8054 41.6521 6.0563L38.9604 2.97297C38.688 2.66086 38.3027 2.46973 37.8894 2.4416C37.476 2.41347 37.0684 2.55065 36.7562 2.82297Z" fill="black"/>
</svg>
