<svg width="50" height="50" viewBox="0 0 50 50" fill="none" xmlns="http://www.w3.org/2000/svg">
<path d="M14.5833 45.8333C13.4375 45.8333 12.4569 45.4257 11.6417 44.6104C10.8264 43.7951 10.4181 42.8139 10.4167 41.6666V20.8333C10.4167 19.6875 10.825 18.7069 11.6417 17.8916C12.4583 17.0764 13.4389 16.668 14.5833 16.6666H35.4167C36.5625 16.6666 37.5437 17.075 38.3604 17.8916C39.1771 18.7083 39.5847 19.6888 39.5833 20.8333V41.6666C39.5833 42.8125 39.1757 43.7937 38.3604 44.6104C37.5451 45.427 36.5639 45.8347 35.4167 45.8333H14.5833ZM22.9167 42.7083H27.0833V39.5833H22.9167V42.7083ZM22.9167 37.5H27.0833C27.0833 36.7014 27.3528 35.9027 27.8917 35.1041C28.4306 34.3055 29.0292 33.4895 29.6875 32.6562C30.3472 31.7882 30.9465 30.9027 31.4854 30C32.0243 29.0972 32.2931 28.125 32.2917 27.0833C32.2917 25.0694 31.5799 23.3507 30.1562 21.927C28.7326 20.5034 27.0139 19.7916 25 19.7916C22.9861 19.7916 21.2674 20.5034 19.8437 21.927C18.4201 23.3507 17.7083 25.0694 17.7083 27.0833C17.7083 28.125 17.9778 29.0972 18.5167 30C19.0556 30.9027 19.6542 31.7882 20.3125 32.6562C20.9722 33.4895 21.5715 34.3055 22.1104 35.1041C22.6493 35.9027 22.9181 36.7014 22.9167 37.5ZM12.5 13.5416C12.5 12.6736 12.8042 11.9361 13.4125 11.3291C14.0208 10.7222 14.7583 10.418 15.625 10.4166H34.375C35.2431 10.4166 35.9812 10.7208 36.5896 11.3291C37.1979 11.9375 37.5014 12.675 37.5 13.5416H12.5ZM14.5833 7.29163C14.5833 6.42357 14.8875 5.68607 15.4958 5.07913C16.1042 4.47218 16.8417 4.16801 17.7083 4.16663H32.2917C33.1597 4.16663 33.8979 4.47079 34.5062 5.07913C35.1146 5.68746 35.4181 6.42496 35.4167 7.29163H14.5833Z" fill="black"/>
</svg>
