<svg width="50" height="50" viewBox="0 0 50 50" fill="none" xmlns="http://www.w3.org/2000/svg">
<path d="M25 6.25C22.3542 6.25 20 7.91667 19.125 10.4167H6.25V14.5833H10.3125L4.16667 29.1667C3.1875 33.3333 6.25 35.4167 11.4583 35.4167C16.6667 35.4167 19.9167 33.3333 18.75 29.1667L12.6042 14.5833H19.1042C19.7917 16.3542 21.1458 17.7083 22.9167 18.3958V41.6667H4.16667V45.8333H45.8333V41.6667H27.0833V18.375C28.8542 17.7083 30.2083 16.3542 30.875 14.5833H37.3958L31.25 29.1667C30.2708 33.3333 33.3333 35.4167 38.5417 35.4167C43.75 35.4167 47 33.3333 45.8333 29.1667L39.6875 14.5833H43.75V10.4167H30.8958C30 7.91667 27.6458 6.25 25 6.25ZM25 10.4167C25.5525 10.4167 26.0824 10.6362 26.4731 11.0269C26.8638 11.4176 27.0833 11.9475 27.0833 12.5C27.0833 13.0525 26.8638 13.5824 26.4731 13.9731C26.0824 14.3638 25.5525 14.5833 25 14.5833C24.4475 14.5833 23.9176 14.3638 23.5269 13.9731C23.1362 13.5824 22.9167 13.0525 22.9167 12.5C22.9167 11.9475 23.1362 11.4176 23.5269 11.0269C23.9176 10.6362 24.4475 10.4167 25 10.4167ZM11.4583 21.3542L14.5833 29.1667H8.33333L11.4583 21.3542ZM38.5417 21.3542L41.6667 29.1667H35.4167L38.5417 21.3542Z" fill="black"/>
</svg>
