<svg width="50" height="50" viewBox="0 0 50 50" fill="none" xmlns="http://www.w3.org/2000/svg">
<g clip-path="url(#clip0_43_1114)">
<path fill-rule="evenodd" clip-rule="evenodd" d="M5.4143 22.7142C5.38136 20.4216 5.80445 18.1454 6.65898 16.0178C7.51352 13.8902 8.78244 11.9537 10.392 10.3209C12.0016 8.68802 13.9196 7.3914 16.0347 6.50639C18.1498 5.62137 20.4197 5.16562 22.7125 5.16562C25.0053 5.16562 27.2752 5.62137 29.3903 6.50639C31.5054 7.3914 33.4235 8.68802 35.033 10.3209C36.6426 11.9537 37.9115 13.8902 38.766 16.0178C39.6206 18.1454 40.0437 20.4216 40.0107 22.7142C39.9454 27.2589 38.0942 31.5954 34.8573 34.7861C31.6203 37.9769 27.2577 39.7656 22.7125 39.7656C18.1673 39.7656 13.8047 37.9769 10.5678 34.7861C7.33082 31.5954 5.4796 27.2589 5.4143 22.7142ZM22.7107 0.0534671C19.136 0.052929 15.6118 0.898253 12.4263 2.52035C9.24075 4.14245 6.48423 6.49529 4.38202 9.38659C2.27981 12.2779 0.891563 15.6256 0.330739 19.156C-0.230085 22.6865 0.0524282 26.2996 1.15519 29.7C2.25795 33.1004 4.14967 36.1917 6.67573 38.7211C9.2018 41.2505 12.2905 43.1462 15.6895 44.2535C19.0884 45.3607 22.7011 45.648 26.2324 45.0919C29.7636 44.5357 33.1131 43.1519 36.0072 41.0535L43.8464 48.8927C44.5161 49.5629 45.4246 49.9396 46.372 49.9399C47.3194 49.9402 48.2281 49.5642 48.8982 48.8945C49.5684 48.2249 49.945 47.3164 49.9454 46.369C49.9457 45.4216 49.5697 44.5129 48.9 43.8428L41.0572 36.0035C43.5059 32.6222 44.9727 28.63 45.2958 24.4677C45.6189 20.3053 44.7857 16.1346 42.8881 12.4159C40.9905 8.69722 38.1024 5.57512 34.5424 3.39423C30.9825 1.21333 26.8892 0.0584474 22.7143 0.0570385L22.7107 0.0534671ZM20.05 14.432C20.2573 14.6393 20.4218 14.8854 20.534 15.1563C20.6462 15.4271 20.704 15.7174 20.704 16.0106C20.704 16.3038 20.6462 16.5941 20.534 16.865C20.4218 17.1358 20.2573 17.3819 20.05 17.5892L14.4857 23.157L20.05 28.7213C20.4687 29.14 20.7039 29.7078 20.7039 30.2999C20.7039 30.892 20.4687 31.4598 20.05 31.8785C19.6313 32.2971 19.0635 32.5323 18.4714 32.5323C17.8794 32.5323 17.3115 32.2971 16.8929 31.8785L9.75001 24.7356C9.54268 24.5283 9.37821 24.2822 9.26599 24.0114C9.15378 23.7405 9.09603 23.4502 9.09603 23.157C9.09603 22.8639 9.15378 22.5736 9.26599 22.3027C9.37821 22.0318 9.54268 21.7857 9.75001 21.5785L16.8929 14.4356C17.1002 14.2283 17.3462 14.0638 17.6171 13.9516C17.888 13.8394 18.1783 13.7816 18.4714 13.7816C18.7646 13.7816 19.0549 13.8394 19.3258 13.9516C19.5966 14.0638 19.8427 14.2247 20.05 14.432ZM28.9786 14.432C28.5599 14.0134 27.9921 13.7782 27.4 13.7782C26.8079 13.7782 26.2401 14.0134 25.8214 14.432C25.4028 14.8507 25.1676 15.4185 25.1676 16.0106C25.1676 16.6027 25.4028 17.1705 25.8214 17.5892L31.3857 23.1535L25.8214 28.7213C25.4028 29.14 25.1676 29.7078 25.1676 30.2999C25.1676 30.892 25.4028 31.4598 25.8214 31.8785C26.2401 32.2971 26.8079 32.5323 27.4 32.5323C27.9921 32.5323 28.5599 32.2971 28.9786 31.8785L36.1214 24.7356C36.3288 24.5283 36.4932 24.2822 36.6055 24.0114C36.7177 23.7405 36.7754 23.4502 36.7754 23.157C36.7754 22.8639 36.7177 22.5736 36.6055 22.3027C36.4932 22.0318 36.3288 21.7857 36.1214 21.5785L28.9786 14.432Z" fill="black"/>
</g>
<defs>
<clipPath id="clip0_43_1114">
<rect width="50" height="50" fill="white"/>
</clipPath>
</defs>
</svg>
