<svg width="50" height="50" viewBox="0 0 50 50" fill="none" xmlns="http://www.w3.org/2000/svg">
<path d="M39.0625 3.20312C39.0625 1.64062 37.4219 0 35.7031 0H14.2969C12.5781 0 10.9375 1.64062 10.9375 3.20312V46.7188C10.9375 48.3594 12.5781 49.9219 14.2969 49.9219H35.7812C37.4219 49.9219 39.1406 48.2812 39.1406 46.7188V3.20312H39.0625Z" fill="#5C6D6D"/>
<path d="M38.2812 46.0938C38.2812 47.6562 36.7188 49.2188 35.1562 49.2188H14.8438C13.2812 49.2188 11.7188 47.6562 11.7188 46.0938V3.90625C11.7188 2.34375 13.2812 0.78125 14.8438 0.78125H35.1562C36.7188 0.78125 38.2812 2.34375 38.2812 3.90625V46.0938Z" fill="#212528"/>
<path d="M33.9844 4.29688C34.4158 4.29688 34.7656 3.9471 34.7656 3.51562C34.7656 3.08415 34.4158 2.73438 33.9844 2.73438C33.5529 2.73438 33.2031 3.08415 33.2031 3.51562C33.2031 3.9471 33.5529 4.29688 33.9844 4.29688Z" fill="#94989B"/>
<path d="M27.3438 3.51562C27.3438 3.75 27.2656 3.90625 27.1094 3.90625H22.8906C22.7344 3.90625 22.6562 3.75 22.6562 3.51562C22.6562 3.35938 22.7344 3.125 22.8906 3.125H27.1094C27.2656 3.125 27.3438 3.35938 27.3438 3.51562Z" fill="#94989B"/>
<path d="M13.2812 6.25H36.7188V43.75H13.2812V6.25Z" fill="#3E4347"/>
<path d="M27.9687 47.0312C27.9687 47.3437 27.7344 47.6562 27.3438 47.6562H22.6562C22.3437 47.6562 22.0312 47.4219 22.0312 47.0312V45.8594C22.0312 45.5469 22.2656 45.2344 22.6562 45.2344H27.3438C27.6562 45.2344 27.9687 45.4687 27.9687 45.8594V47.0312Z" fill="#94989B"/>
<path d="M18.75 11.4844C18.75 11.875 18.4375 12.1094 18.125 12.1094H15.5469C15.1562 12.1094 14.9219 11.7969 14.9219 11.4844V8.90625C14.9219 8.51562 15.2344 8.28125 15.5469 8.28125H18.125C18.5156 8.28125 18.75 8.59375 18.75 8.90625V11.4844Z" fill="#42ADE2"/>
<path d="M24.2187 11.4844C24.2187 11.875 23.9063 12.1094 23.5938 12.1094H21.0156C20.625 12.1094 20.3906 11.7969 20.3906 11.4844V8.90625C20.3906 8.51562 20.7031 8.28125 21.0156 8.28125H23.5938C23.9844 8.28125 24.2187 8.59375 24.2187 8.90625V11.4844Z" fill="#C7E755"/>
<path d="M29.6875 11.4844C29.6875 11.875 29.375 12.1094 29.0625 12.1094H26.4844C26.0938 12.1094 25.8594 11.7969 25.8594 11.4844V8.90625C25.8594 8.51562 26.1719 8.28125 26.4844 8.28125H29.0625C29.4531 8.28125 29.6875 8.59375 29.6875 8.90625V11.4844Z" fill="#F2B200"/>
<path d="M35.1563 11.4844C35.1563 11.875 34.8438 12.1094 34.5313 12.1094H31.9531C31.5625 12.1094 31.3281 11.7969 31.3281 11.4844V8.90625C31.3281 8.51562 31.6406 8.28125 31.9531 8.28125H34.5313C34.9219 8.28125 35.1563 8.59375 35.1563 8.90625V11.4844Z" fill="#42ADE2"/>
<path d="M18.75 41.5625C18.75 41.9531 18.4375 42.1875 18.125 42.1875H15.5469C15.1562 42.1875 14.9219 41.875 14.9219 41.5625V38.9844C14.9219 38.5938 15.2344 38.3594 15.5469 38.3594H18.125C18.5156 38.3594 18.75 38.6719 18.75 38.9844V41.5625Z" fill="#C7E755"/>
<path d="M24.2187 41.5625C24.2187 41.9531 23.9063 42.1875 23.5938 42.1875H21.0156C20.625 42.1875 20.3906 41.875 20.3906 41.5625V38.9844C20.3906 38.5938 20.7031 38.3594 21.0156 38.3594H23.5938C23.9844 38.3594 24.2187 38.6719 24.2187 38.9844V41.5625Z" fill="#FF435E"/>
<path d="M29.6875 41.5625C29.6875 41.9531 29.375 42.1875 29.0625 42.1875H26.4844C26.0938 42.1875 25.8594 41.875 25.8594 41.5625V38.9844C25.8594 38.5938 26.1719 38.3594 26.4844 38.3594H29.0625C29.4531 38.3594 29.6875 38.6719 29.6875 38.9844V41.5625Z" fill="#42ADE2"/>
<path d="M35.1563 41.5625C35.1563 41.9531 34.8438 42.1875 34.5313 42.1875H31.9531C31.5625 42.1875 31.3281 41.875 31.3281 41.5625V38.9844C31.3281 38.5938 31.6406 38.3594 31.9531 38.3594H34.5313C34.9219 38.3594 35.1563 38.6719 35.1563 38.9844V41.5625Z" fill="#C28FEF"/>
<path d="M18.75 26.4844C18.75 26.875 18.4375 27.1094 18.125 27.1094H15.5469C15.1562 27.1094 14.9219 26.7969 14.9219 26.4844V23.9063C14.9219 23.5156 15.2344 23.2812 15.5469 23.2812H18.125C18.5156 23.2812 18.75 23.5938 18.75 23.9063V26.4844Z" fill="#C7E755"/>
<path d="M24.2187 26.4844C24.2187 26.875 23.9063 27.1094 23.5938 27.1094H21.0156C20.625 27.1094 20.3906 26.7969 20.3906 26.4844V23.9063C20.3906 23.5156 20.7031 23.2812 21.0156 23.2812H23.5938C23.9844 23.2812 24.2187 23.5938 24.2187 23.9063V26.4844Z" fill="#C28FEF"/>
<path d="M29.6875 26.4844C29.6875 26.875 29.375 27.1094 29.0625 27.1094H26.4844C26.0938 27.1094 25.8594 26.7969 25.8594 26.4844V23.9063C25.8594 23.5156 26.1719 23.2812 26.4844 23.2812H29.0625C29.4531 23.2812 29.6875 23.5938 29.6875 23.9063V26.4844Z" fill="#42ADE2"/>
<path d="M18.75 21.4844C18.75 21.875 18.4375 22.1094 18.125 22.1094H15.5469C15.1562 22.1094 14.9219 21.7969 14.9219 21.4844V18.9063C14.9219 18.5156 15.2344 18.2812 15.5469 18.2812H18.125C18.5156 18.2812 18.75 18.5938 18.75 18.9063V21.4844Z" fill="#FF435E"/>
<path d="M24.2187 21.4844C24.2187 21.875 23.9063 22.1094 23.5938 22.1094H21.0156C20.625 22.1094 20.3906 21.7969 20.3906 21.4844V18.9063C20.3906 18.5156 20.7031 18.2812 21.0156 18.2812H23.5938C23.9844 18.2812 24.2187 18.5938 24.2187 18.9063V21.4844Z" fill="#F2B200"/>
<path d="M29.6875 21.4844C29.6875 21.875 29.375 22.1094 29.0625 22.1094H26.4844C26.0938 22.1094 25.8594 21.7969 25.8594 21.4844V18.9063C25.8594 18.5156 26.1719 18.2812 26.4844 18.2812H29.0625C29.4531 18.2812 29.6875 18.5938 29.6875 18.9063V21.4844Z" fill="#C7E755"/>
<path d="M35.1563 21.4844C35.1563 21.875 34.8438 22.1094 34.5313 22.1094H31.9531C31.5625 22.1094 31.3281 21.7969 31.3281 21.4844V18.9063C31.3281 18.5156 31.6406 18.2812 31.9531 18.2812H34.5313C34.9219 18.2812 35.1563 18.5938 35.1563 18.9063V21.4844Z" fill="#F2B200"/>
<path d="M18.75 16.4844C18.75 16.875 18.4375 17.1094 18.125 17.1094H15.5469C15.1562 17.1094 14.9219 16.7969 14.9219 16.4844V13.9062C14.9219 13.5156 15.2344 13.2812 15.5469 13.2812H18.125C18.5156 13.2812 18.75 13.5937 18.75 13.9062V16.4844Z" fill="#C28FEF"/>
<path d="M24.2187 16.4844C24.2187 16.875 23.9063 17.1094 23.5938 17.1094H21.0156C20.625 17.1094 20.3906 16.7969 20.3906 16.4844V13.9062C20.3906 13.5156 20.7031 13.2812 21.0156 13.2812H23.5938C23.9844 13.2812 24.2187 13.5937 24.2187 13.9062V16.4844Z" fill="#42ADE2"/>
<path d="M29.6875 16.4844C29.6875 16.875 29.375 17.1094 29.0625 17.1094H26.4844C26.0938 17.1094 25.8594 16.7969 25.8594 16.4844V13.9062C25.8594 13.5156 26.1719 13.2812 26.4844 13.2812H29.0625C29.4531 13.2812 29.6875 13.5937 29.6875 13.9062V16.4844Z" fill="#FF435E"/>
<path d="M35.1563 16.4844C35.1563 16.875 34.8438 17.1094 34.5313 17.1094H31.9531C31.5625 17.1094 31.3281 16.7969 31.3281 16.4844V13.9062C31.3281 13.5156 31.6406 13.2812 31.9531 13.2812H34.5313C34.9219 13.2812 35.1563 13.5937 35.1563 13.9062V16.4844Z" fill="#C28FEF"/>
</svg>
