<svg width="50" height="50" viewBox="0 0 50 50" fill="none" xmlns="http://www.w3.org/2000/svg">
<path d="M6.24998 12.5001V45.8334H43.75V50.0001H6.24998C5.14491 50.0001 4.0851 49.5611 3.3037 48.7797C2.5223 47.9983 2.08331 46.9385 2.08331 45.8334V12.5001H6.24998ZM33.3333 18.7501H44.7916L33.3333 7.29175V18.7501ZM14.5833 4.16675H35.4166L47.9166 16.6667V37.5001C47.9166 38.6051 47.4777 39.665 46.6963 40.4464C45.9149 41.2278 44.855 41.6667 43.75 41.6667H14.5833C13.4782 41.6667 12.4184 41.2278 11.637 40.4464C10.8556 39.665 10.4166 38.6051 10.4166 37.5001V8.33341C10.4166 7.22835 10.8556 6.16854 11.637 5.38714C12.4184 4.60573 13.4782 4.16675 14.5833 4.16675ZM14.5833 8.33341V37.5001H43.75V22.9167H29.1666V8.33341H14.5833Z" fill="black"/>
</svg>
