<svg width="50" height="50" viewBox="0 0 50 50" fill="none" xmlns="http://www.w3.org/2000/svg">
<path d="M43.75 22.9167C43.75 34.4792 35.75 45.2917 25 47.9167C14.25 45.2917 6.25 34.4792 6.25 22.9167V10.4167L25 2.08337L43.75 10.4167V22.9167ZM25 43.75C32.8125 41.6667 39.5833 32.375 39.5833 23.375V13.125L25 6.62504L10.4167 13.125V23.375C10.4167 32.375 17.1875 41.6667 25 43.75ZM30.8333 22.9167V19.7917C30.8333 16.875 27.9167 14.5834 25 14.5834C22.0833 14.5834 19.1667 16.875 19.1667 19.7917V22.9167C17.9167 22.9167 16.6667 24.1667 16.6667 25.4167V32.7084C16.6667 34.1667 17.9167 35.4167 19.1667 35.4167H30.625C32.0833 35.4167 33.3333 34.1667 33.3333 32.9167V25.625C33.3333 24.1667 32.0833 22.9167 30.8333 22.9167ZM28.125 22.9167H21.875V19.7917C21.875 18.125 23.3333 17.0834 25 17.0834C26.6667 17.0834 28.125 18.125 28.125 19.7917V22.9167Z" fill="black"/>
</svg>
