<svg width="50" height="50" viewBox="0 0 50 50" fill="none" xmlns="http://www.w3.org/2000/svg">
<path d="M16.6667 10.4166H12.5C11.395 10.4166 10.3352 10.8556 9.55376 11.637C8.77236 12.4184 8.33337 13.4782 8.33337 14.5833V39.5833C8.33337 40.6884 8.77236 41.7482 9.55376 42.5296C10.3352 43.311 11.395 43.75 12.5 43.75H24.3688M37.5 25V14.5833C37.5 13.4782 37.0611 12.4184 36.2797 11.637C35.4982 10.8556 34.4384 10.4166 33.3334 10.4166H29.1667" stroke="black" stroke-width="2" stroke-linecap="round" stroke-linejoin="round"/>
<path d="M16.6667 22.9167H25.0001M16.6667 31.25H22.9167M38.5417 40.625L43.7501 45.8333M16.6667 10.4167C16.6667 9.3116 17.1057 8.25179 17.8871 7.47039C18.6685 6.68899 19.7283 6.25 20.8334 6.25H25.0001C26.1052 6.25 27.165 6.68899 27.9464 7.47039C28.7278 8.25179 29.1667 9.3116 29.1667 10.4167C29.1667 11.5217 28.7278 12.5815 27.9464 13.3629C27.165 14.1443 26.1052 14.5833 25.0001 14.5833H20.8334C19.7283 14.5833 18.6685 14.1443 17.8871 13.3629C17.1057 12.5815 16.6667 11.5217 16.6667 10.4167ZM29.1667 36.4583C29.1667 37.8397 29.7155 39.1644 30.6922 40.1412C31.669 41.1179 32.9937 41.6667 34.3751 41.6667C35.7564 41.6667 37.0812 41.1179 38.0579 40.1412C39.0347 39.1644 39.5834 37.8397 39.5834 36.4583C39.5834 35.077 39.0347 33.7522 38.0579 32.7755C37.0812 31.7987 35.7564 31.25 34.3751 31.25C32.9937 31.25 31.669 31.7987 30.6922 32.7755C29.7155 33.7522 29.1667 35.077 29.1667 36.4583Z" stroke="black" stroke-width="2" stroke-linecap="round" stroke-linejoin="round"/>
</svg>
