<svg width="50" height="50" viewBox="0 0 50 50" fill="none" xmlns="http://www.w3.org/2000/svg">
<path d="M4.16663 25C4.16663 36.5062 13.4937 45.8333 25 45.8333C36.5062 45.8333 45.8333 36.5062 45.8333 25C45.8333 13.4937 36.5062 4.16663 25 4.16663C13.4937 4.16663 4.16663 13.4937 4.16663 25Z" stroke="black" stroke-width="1.5" stroke-linecap="round" stroke-linejoin="round"/>
<path d="M27.0833 4.27075C27.0833 4.27075 33.3333 12.4999 33.3333 24.9999C33.3333 37.4999 27.0833 45.7291 27.0833 45.7291M22.9166 45.7291C22.9166 45.7291 16.6666 37.4999 16.6666 24.9999C16.6666 12.4999 22.9166 4.27075 22.9166 4.27075M5.47913 32.2916H44.5208M5.47913 17.7083H44.5208" stroke="black" stroke-width="1.5" stroke-linecap="round" stroke-linejoin="round"/>
</svg>
