<svg width="50" height="50" viewBox="0 0 50 50" fill="none" xmlns="http://www.w3.org/2000/svg">
<path d="M33.3333 45.8334V44.7918C33.3333 42.4897 35.275 40.6251 37.3375 39.6043C39.3437 38.6147 41.0291 36.9793 41.2437 35.0626L41.6666 31.2501L45.8333 29.1667L40.625 21.3542C40.6256 17.0659 39.0231 12.9323 36.1321 9.76491C33.2411 6.59757 29.2705 4.62535 25 4.2355M13.5416 35.4084V45.8334M13.5416 35.4084C11.3814 33.8837 9.59961 31.8838 8.33329 29.5626M13.5416 35.4084C15.1041 36.5126 16.8625 37.3605 18.75 37.8938M11.4583 20.8334V25.0001M17.7083 20.8334V25.0001M11.4583 4.16675V8.33342M17.7083 4.16675V8.33342M8.33329 11.4584H4.16663M8.33329 17.7084H4.16663M25 11.4584H20.8333M25 17.7084H20.8333M16.6666 8.33342H12.5C10.5354 8.33342 9.55413 8.33342 8.94371 8.94383C8.33329 9.55425 8.33329 10.5355 8.33329 12.5001V16.6667C8.33329 18.6313 8.33329 19.6126 8.94371 20.223C9.55413 20.8334 10.5354 20.8334 12.5 20.8334H16.6666C18.6312 20.8334 19.6125 20.8334 20.2229 20.223C20.8333 19.6126 20.8333 18.6313 20.8333 16.6667V12.5001C20.8333 10.5355 20.8333 9.55425 20.2229 8.94383C19.6125 8.33342 18.6312 8.33342 16.6666 8.33342Z" stroke="black" stroke-width="1.5" stroke-linecap="round" stroke-linejoin="round"/>
</svg>
